<svg width="13" height="19" viewBox="0 0 13 19" fill="none" xmlns="http://www.w3.org/2000/svg">
<path d="M6.8125 12.625C7.75 12.625 8.54688 12.2969 9.20312 11.6406C9.85938 10.9844 10.1875 10.1875 10.1875 9.25V3.625C10.1875 2.6875 9.85938 1.89063 9.20312 1.23438C8.54688 0.578125 7.75 0.25 6.8125 0.25C5.875 0.25 5.07812 0.578125 4.42188 1.23438C3.76562 1.89063 3.4375 2.6875 3.4375 3.625V9.25C3.4375 10.1875 3.76562 10.9844 4.42188 11.6406C5.07812 12.2969 5.875 12.625 6.8125 12.625ZM12.4375 7H11.875C11.7109 7 11.5703 7.05859 11.4531 7.17578C11.3594 7.26953 11.3125 7.39844 11.3125 7.5625V9.25C11.3125 10.1172 11.0781 10.9141 10.6094 11.6406C10.1641 12.3438 9.56641 12.8945 8.81641 13.293C8.06641 13.668 7.24609 13.8086 6.35547 13.7148C5.60547 13.6445 4.91406 13.3867 4.28125 12.9414C3.67188 12.4961 3.19141 11.9336 2.83984 11.2539C2.48828 10.5508 2.3125 9.8125 2.3125 9.03906V7.5625C2.3125 7.39844 2.25391 7.26953 2.13672 7.17578C2.04297 7.05859 1.91406 7 1.75 7H1.1875C1.02344 7 0.882812 7.05859 0.765625 7.17578C0.671875 7.26953 0.625 7.39844 0.625 7.5625V8.96875C0.625 10.0234 0.847656 11.0195 1.29297 11.957C1.76172 12.8711 2.40625 13.6328 3.22656 14.2422C4.04688 14.8516 4.96094 15.2266 5.96875 15.3672V16.5625H4C3.83594 16.5625 3.69531 16.6094 3.57812 16.7031C3.48438 16.8203 3.4375 16.9609 3.4375 17.125V17.6875C3.4375 17.8516 3.48438 17.9805 3.57812 18.0742C3.69531 18.1914 3.83594 18.25 4 18.25H9.625C9.78906 18.25 9.91797 18.1914 10.0117 18.0742C10.1289 17.9805 10.1875 17.8516 10.1875 17.6875V17.125C10.1875 16.9609 10.1289 16.8203 10.0117 16.7031C9.91797 16.6094 9.78906 16.5625 9.625 16.5625H7.65625V15.3672C8.64062 15.2266 9.54297 14.875 10.3633 14.3125C11.1836 13.7266 11.8281 13 12.2969 12.1328C12.7656 11.2422 13 10.2812 13 9.25V7.5625C13 7.39844 12.9414 7.26953 12.8242 7.17578C12.7305 7.05859 12.6016 7 12.4375 7Z" fill="#9D9D9D"/>
</svg>
