<svg width="14" height="13" viewBox="0 0 14 13" fill="none" xmlns="http://www.w3.org/2000/svg">
<path d="M12.1562 0.570312L1.30469 6.85156C1.08594 6.96094 0.984375 7.13281 1 7.36719C1.01562 7.60156 1.13281 7.76562 1.35156 7.85938L3.83594 8.89062L10.5625 2.96094C10.625 2.91406 10.6875 2.92187 10.75 2.98438C10.8125 3.03125 10.8203 3.08594 10.7734 3.14844L5.125 10.0391V11.9141C5.125 12.1016 5.17969 12.2422 5.28906 12.3359C5.41406 12.4453 5.55469 12.5 5.71094 12.5C5.88281 12.5 6.02344 12.4297 6.13281 12.2891L7.60938 10.4844L10.5391 11.7031C10.6953 11.7812 10.8516 11.7734 11.0078 11.6797C11.1797 11.5859 11.2812 11.4531 11.3125 11.2812L13 1.15625C13.0312 0.921875 12.9453 0.742187 12.7422 0.617188C12.5547 0.476562 12.3594 0.460937 12.1562 0.570312Z" fill="white"/>
</svg>
