<svg width="17" height="17" viewBox="0 0 17 17" fill="none" xmlns="http://www.w3.org/2000/svg">
<path d="M8.50033 12.9998C8.36225 12.9998 8.25033 13.1118 8.25033 13.2498C8.25033 13.3879 8.36225 13.4998 8.50033 13.4998C8.6384 13.4998 8.75033 13.3879 8.75033 13.2498C8.75033 13.1118 8.6384 12.9998 8.50033 12.9998V12.9998" stroke="black" stroke-width="1.2" stroke-linecap="round" stroke-linejoin="round"/>
<path d="M8.50033 10.9998V5.99985" stroke="black" stroke-width="1.2" stroke-linecap="round"/>
<path fill-rule="evenodd" clip-rule="evenodd" d="M9.58067 1.67317C9.37826 1.2611 8.95911 1 8.50001 1C8.0409 1 7.62175 1.2611 7.41934 1.67317L1.10401 14.5385C0.949457 14.8529 0.968142 15.2248 1.15343 15.5221C1.33871 15.8195 1.66434 16.0001 2.01467 15.9998H14.9853C15.3357 16.0001 15.6613 15.8195 15.8466 15.5221C16.0319 15.2248 16.0506 14.8529 15.896 14.5385L9.58067 1.67317Z" stroke="black" stroke-width="1.2" stroke-linecap="round" stroke-linejoin="round"/>
</svg>
